<?xml version="1.0" encoding="UTF-8"?>
<svg artist="Katerina Limpitsouni" role="img" source="https://undraw.co/" viewBox="0 0 832.21 500.36" xmlns="http://www.w3.org/2000/svg">
<path transform="translate(-183.9 -199.82)" d="m227.32 699.06c-0.05567-0.24512-5.44-24.798 5.5562-45.19 10.996-20.392 34.468-29.385 34.704-29.474l1.0728-0.40235 0.25342 1.1182c0.05566 0.24511 5.4399 24.798-5.5562 45.19-10.996 20.392-34.468 29.385-34.704 29.474l-1.0732 0.40234zm39.862-72.338c-4.7017 2.0225-23.258 10.874-32.545 28.097-9.2881 17.225-6.4858 37.594-5.5923 42.631 4.6997-2.0176 23.249-10.855 32.545-28.097 9.2876-17.224 6.4863-37.591 5.5923-42.631z" fill="#f1f1f1"/>
<path transform="translate(-183.9 -199.82)" d="m254.94 663.15c-19.761 11.889-27.371 35.503-27.371 35.503s24.428 4.3388 44.188-7.5498 27.371-35.503 27.371-35.503-24.428-4.3388-44.188 7.5498z" fill="#f1f1f1"/>
<path transform="translate(-183.9 -199.82)" d="m554.19 472.56a10.837 10.837 0 0 0-10.48-12.897l-9.1508-23.012-15.341 2.1501 13.379 32.317a10.896 10.896 0 0 0 21.592 1.4426z" fill="#9f616a"/>
<path transform="translate(-183.9 -199.82)" d="m525.93 464.48-4.7535-11.335-29.621-56.385 1.6106-104.33 0.30923-0.041c18.954-2.5042 31.778 84.829 32.315 88.548l18.716 64.008 4.4552 14.108z" fill="#8a2be2"/>
<polygon points="296.52 484.66 310.92 484.66 317.77 429.11 296.52 429.11" fill="#9f616a"/>
<path transform="translate(-183.9 -199.82)" d="m476.74 679.78 28.363-0.00114h0.00115a18.076 18.076 0 0 1 18.075 18.075v0.58737l-46.438 0.00172z" fill="#2f2e41"/>
<polygon points="164.1 462.72 175.91 470.95 213.29 429.29 195.85 417.14" fill="#9f616a"/>
<path transform="translate(-183.9 -199.82)" d="m347.67 656.58 23.271 16.216 9.4e-4 6.5e-4a18.076 18.076 0 0 1 4.4952 25.164l-0.33583 0.4819-38.1-26.55z" fill="#2f2e41"/>
<path transform="translate(-183.9 -199.82)" d="m472.5 671.42-0.62235-104.21-9.0619-65.526-16.895 57.624-0.03285 0.04733-61.225 88.885-23.823-12.07 0.13051-0.31012c1.4559-3.4628 35.762-84.794 44.983-84.794a4.9798 4.9798 0 0 0 4.2424-1.8642c2.7064-3.614 0.50244-11.283 0.47983-11.36-2.6397-10.946 3.9974-14.674 5.3193-15.296l3.5556-73.397 0.36857 0.02543 96.39 6.7611-4.0439 91.766-8.6988 120.23-0.29881 0.03391z" fill="#2f2e41"/>
<path transform="translate(-183.9 -199.82)" d="m517.78 472.2-0.41678-0.03391-103.66-8.3562 0.25589-34.3 5.0738-89.558 0.02878-0.06216 20.663-44.859 14.647-6.6325 21.37-1.1246 0.0521 0.01307 19.503 4.8319 20.288 145.64z" fill="#8a2be2"/>
<circle transform="translate(-247.58 54.558) rotate(-28.663)" cx="466" cy="251.83" r="27.294" fill="#9f616a"/>
<path transform="translate(-183.9 -199.82)" d="m438.55 258.68v-10.634s-8.576-10.1 0.85759-12.645c0 0 2.5728-25.443 24.87-13.57 0 0 30.873-5.0886 27.443 12.721 0 0 7.7184-4.6496 5.1456 7.2237l-4.9758 19.126s2.4031-12.634-5.3153-14.33l-4.288-2.5443s-12.006 11.873-30.016-2.5443c0 0-7.7183-1.8422-6.8608 5.7907s-6.8607 11.406-6.8607 11.406z" fill="#2f2e41"/>
<path transform="translate(-183.9 -199.82)" d="m463.15 446.59a10.837 10.837 0 0 0-12.624-10.807l-13.132-20.997-14.706 4.8682 18.961 29.391a10.896 10.896 0 0 0 21.5-2.4556z" fill="#9f616a"/>
<path transform="translate(-183.9 -199.82)" d="m429.24 439.97-23.758-48.235 0.021-0.11726c0.09572-0.53405 9.659-53.634 16.973-73.152 7.3605-19.641 17.436-23.585 17.861-23.743l0.21263-0.07912 9.0338 8.6652-12.514 83.527 13.489 40.284z" fill="#8a2be2"/>
<rect x="786.21" width="46" height="46" fill="#f1f1f1"/>
<rect x="426.21" y="179" width="46" height="46" fill="#f1f1f1"/>
<path transform="translate(-183.9 -199.82)" d="m635.92 404.66h363.67v-184.11h-363.67z" fill="#fff"/>
<path transform="translate(-183.9 -199.82)" d="m1002.6 407.66h-369.67v-190.11h369.67zm-363.67-6h357.67v-178.11h-357.67z" fill="#e5e5e5"/>
<rect x="495.68" y="85.316" width="279.81" height="9.2792" fill="#e5e5e5"/>
<rect x="495.68" y="107.82" width="279.81" height="9.2792" fill="#e5e5e5"/>
<rect x="723.48" y="141.05" width="52" height="8.0527" fill="#8a2be2"/>
<path transform="translate(-183.9 -199.82)" d="m565.9 700.14h-381a1 1 0 1 1 0-2h381a1 1 0 0 1 0 2z" fill="#cbcbcb"/>
</svg>
